<svg width="114" height="114" fill="none" id="ds4g-logo" xmlns="http://www.w3.org/2000/svg">
  <path fill="#0000FF" d="M0 0h114v114H0z"/>
  <path d="M15.957 27.76V17.706h2.464c2.575 0 4.705 1.62 4.705 5.038 0 3.419-2.153 5.017-4.727 5.017h-2.442Zm2.553 2.841c4.483 0 7.79-2.885 7.79-7.857 0-4.971-3.285-7.879-7.768-7.879h-5.638v15.736h5.616Zm13.175 0v-10.92h-2.952v10.92h2.952Zm-3.307-14.493c0 .977.821 1.798 1.82 1.798a1.81 1.81 0 0 0 1.82-1.798c0-1.02-.799-1.842-1.82-1.842-.999 0-1.82.821-1.82 1.842Zm5.69 15.093c.311 2.086 2.309 3.95 5.305 3.95 4.106 0 5.727-2.73 5.727-5.726v-9.743h-2.842v1.287c-.377-.733-1.376-1.487-3.107-1.487-2.996 0-5.082 2.441-5.082 5.327 0 3.063 2.175 5.304 5.082 5.304 1.576 0 2.597-.688 3.041-1.398v.799c0 2.108-1.043 3.04-2.907 3.04-1.399 0-2.353-.865-2.553-2.064l-2.663.71Zm5.594-3.618c-1.532 0-2.62-1.065-2.62-2.774 0-1.687 1.155-2.753 2.62-2.753 1.42 0 2.574 1.066 2.574 2.753 0 1.686-1.065 2.774-2.574 2.774Zm11.379 3.018v-10.92h-2.952v10.92h2.952Zm-3.307-14.493c0 .977.82 1.798 1.82 1.798a1.81 1.81 0 0 0 1.82-1.798c0-1.02-.8-1.842-1.82-1.842-1 0-1.82.821-1.82 1.842Zm10.107.311h-2.664v1.532c0 .976-.532 1.73-1.686 1.73h-.555v2.62h1.975v5.082c0 2.109 1.332 3.374 3.462 3.374.866 0 1.399-.156 1.665-.267v-2.44c-.155.043-.555.088-.91.088-.843 0-1.287-.31-1.287-1.265V22.3h2.197v-2.62h-2.197V16.42Zm4.104 11.208c0 1.71 1.42 3.285 3.75 3.285 1.62 0 2.664-.755 3.219-1.62 0 .422.044 1.02.11 1.31h2.709a12.224 12.224 0 0 1-.134-1.732V23.5c0-2.198-1.287-4.151-4.75-4.151-2.929 0-4.505 1.886-4.682 3.595l2.619.555c.088-.954.799-1.775 2.086-1.775 1.243 0 1.842.643 1.842 1.42 0 .377-.2.688-.821.777l-2.686.4c-1.82.266-3.262 1.353-3.262 3.306Zm4.372 1.088c-.954 0-1.42-.622-1.42-1.265 0-.844.599-1.265 1.353-1.376l2.464-.378v.489c0 1.93-1.154 2.53-2.397 2.53Zm11.21 1.886V14.533h-2.952V30.6h2.952ZM23.48 39.616c-.355-1.775-1.82-4.084-5.637-4.084-2.974 0-5.482 2.131-5.482 4.928 0 2.374 1.62 3.995 4.128 4.505l2.197.444c1.221.244 1.909.955 1.909 1.864 0 1.11-.91 1.931-2.552 1.931-2.22 0-3.307-1.398-3.44-2.952l-2.841.755c.244 2.242 2.086 4.927 6.258 4.927 3.662 0 5.682-2.441 5.682-4.86 0-2.22-1.531-4.084-4.394-4.639l-2.198-.422c-1.154-.222-1.709-.91-1.709-1.775 0-1.043.977-1.998 2.464-1.998 1.998 0 2.708 1.354 2.863 2.22l2.752-.844Zm4.652 5.283c.067-1 .91-2.153 2.442-2.153 1.687 0 2.397 1.065 2.441 2.153h-4.882Zm5.172 2.84c-.355.977-1.11 1.665-2.486 1.665-1.465 0-2.685-1.043-2.752-2.486h7.813c0-.044.044-.488.044-.91 0-3.506-2.02-5.66-5.393-5.66-2.797 0-5.372 2.265-5.372 5.75 0 3.684 2.642 5.836 5.638 5.836 2.686 0 4.417-1.575 4.972-3.462l-2.464-.732Zm11.602-7.102a6.72 6.72 0 0 0-.688-.044c-.932 0-2.442.266-3.108 1.709v-1.62h-2.863v10.92H41.2v-4.994c0-2.353 1.31-3.085 2.819-3.085.266 0 .555.022.888.088v-2.974Zm12.7.045h-3.108l-2.596 7.324-2.708-7.324h-3.24l4.46 10.92h2.953l4.239-10.92Zm4.748 10.92v-10.92h-2.952v10.92h2.952Zm-3.307-14.494c0 .977.82 1.798 1.82 1.798a1.81 1.81 0 0 0 1.82-1.798c0-1.02-.8-1.842-1.82-1.842-1 0-1.82.821-1.82 1.842Zm11.372 5.97c1.465 0 2.153.933 2.42 1.843l2.64-.888c-.466-1.842-2.153-3.684-5.127-3.684-3.173 0-5.66 2.419-5.66 5.793 0 3.35 2.53 5.792 5.75 5.792 2.907 0 4.616-1.864 5.104-3.684l-2.597-.866c-.244.844-.999 1.843-2.508 1.843-1.51 0-2.796-1.11-2.796-3.085 0-1.976 1.265-3.063 2.774-3.063Zm9.342 1.82c.067-.998.91-2.152 2.442-2.152 1.686 0 2.397 1.065 2.441 2.153h-4.883Zm5.172 2.842c-.356.976-1.11 1.664-2.486 1.664-1.465 0-2.686-1.043-2.752-2.486h7.812c0-.044.044-.488.044-.91 0-3.506-2.02-5.66-5.393-5.66-2.796 0-5.37 2.265-5.37 5.75 0 3.684 2.64 5.836 5.637 5.836 2.685 0 4.416-1.575 4.971-3.462l-2.463-.732Z" fill="#fff"/>
</svg>
